<?xml version="1.0" encoding="utf-8"?>
<!-- Generator: Adobe Illustrator 24.0.3, SVG Export Plug-In . SVG Version: 6.00 Build 0)  -->
<svg version="1.1" id="レイヤー_1" xmlns="http://www.w3.org/2000/svg" xmlns:xlink="http://www.w3.org/1999/xlink" x="0px"
	 y="0px" viewBox="0 0 2800 500" style="enable-background:new 0 0 2800 500;" xml:space="preserve">
<style type="text/css">
	.st0{fill:#0A8F54;}
	.st1{fill:none;stroke:#0A8F54;stroke-width:10;stroke-miterlimit:10;}
	.st2{fill:#10A361;}
	.st3{fill:#FF8F8F;}
	.st4{fill:#FFFFFF;}
	.st5{fill:#E2A803;}
</style>
<g>
	<rect x="1098.8" y="345.2" class="st0" width="5" height="157.1"/>
	<rect x="1299" y="345.2" class="st0" width="5" height="157.1"/>
	<rect x="1499.3" y="278.7" class="st0" width="5" height="223.6"/>
	<rect x="1699.6" y="278.7" class="st0" width="5" height="223.6"/>
	<rect x="1899.9" y="230.5" class="st0" width="5" height="271.9"/>
	<path class="st1" d="M2102.7,230.5v271.9"/>
	<rect x="2300.4" y="159.6" class="st0" width="5" height="342.8"/>
	<rect x="2500.7" y="189.1" class="st0" width="5" height="313.2"/>
	<rect x="2701" y="189.1" class="st0" width="5" height="313.2"/>
	<g>
		<path class="st0" d="M496.8,505.3c-0.7-9.1,3.6-21.6,6.4-29.9l0.2-0.6c2.3-6.7,2.5-14.2,0.4-21.1c-1.9-6.5-5.6-11.9-10.4-15.3
			c-4.2-3-12.8-6.7-23.5,1.7l-3.1-3.9c9.6-7.7,20.4-8.3,29.5-1.9c12.1,8.6,17.1,26.6,11.8,42.1L508,477c-2.5,7.4-6.8,19.9-6.2,27.9
			L496.8,505.3z"/>
		<path class="st2" d="M442.5,449.1l-16.7-9.7l14.3-12.9c5.8-5.2,14.6-4.7,19.8,1c2.1,2.3,7.5,7.5,7.5,7.5s-5.1,9.2-8.6,12.3
			C454.4,451.5,447.7,452.2,442.5,449.1"/>
		<path class="st2" d="M474.4,463.3c-5.8-1.9-9.7-7.3-9.7-13.3c0-4.7,3.4-14.6,3.4-14.6s7.5,0.6,10.6,0.6c7.7,0,14,6.3,14,14l0,19.3
			L474.4,463.3"/>
	</g>
	<rect x="698.2" y="424.2" class="st0" width="5" height="77.9"/>
	<g>
		<path class="st1" d="M77.2,467.2c11.5-33.9,56.2-20.3,28.9,14.6c-5.4,6.6-4.8,14.6-6,23"/>
		<path class="st2" d="M52.8,479.5l-16.7-9.7l14.3-12.9c5.8-5.2,14.6-4.7,19.8,1c2.1,2.3,7.5,7.5,7.5,7.5s-5.1,9.2-8.6,12.3
			C64.7,481.8,58,482.5,52.8,479.5"/>
		<path class="st2" d="M84.2,493.2c-5.8-1.9-9.7-7.3-9.7-13.3c0-4.7,3.4-14.6,3.4-14.6s7.5,0.6,10.6,0.6c7.7,0,14,6.3,14,14l0,19.3
			L84.2,493.2"/>
	</g>
	<path class="st3" d="M2309.5,185.7h-13.1c-14.4,0-26-11.6-26-26v-13.1c0-14.4,11.6-26,26-26h13.1c14.4,0,26,11.6,26,26v13.1
		C2335.5,174,2323.9,185.7,2309.5,185.7z"/>
	<g>
		<path class="st4" d="M2314.4,142.4c0,0.1-7.9,0.1-7.9,0.1c4.6,1.8,3.1,14.3-0.5,18c-0.9,1-2.3,1.2-3.5,0.7
			c-3-1.4-3.7-6.5-3.4-12.8c0.3-7.4,3.6-13.2,8.1-12.9c2.2,0.3,3.8,1.9,6,4c-2.4-4.8-6.1-7.8-10.2-7.8c-7.3,0-13.2,9.6-13.2,21.5
			s5.9,21.5,13.2,21.5s13.2-9.6,13.2-21.5C2316.1,149.2,2315.5,145.6,2314.4,142.4z"/>
	</g>
	<path class="st3" d="M2721.6,228.2h-36.3c-39.8,0-72-32.2-72-72V120c0-39.8,32.2-72,72-72h36.3c39.8,0,72,32.2,72,72v36.3
		C2793.6,196,2761.4,228.2,2721.6,228.2z"/>
	<g>
		<path class="st4" d="M2735,108.7c0,0.2-21.8,0.2-21.8,0.2c12.8,4.8,8.4,39.3-1.3,49.6c-2.5,2.6-6.4,3.4-9.7,1.9
			c-8.3-3.8-10.1-18-9.4-35.3c0.9-20.4,9.8-36.4,22.3-35.4c6.1,0.7,10.6,5.1,16.4,11c-6.7-13.2-16.8-21.6-28-21.6
			c-20.1,0-36.3,26.5-36.3,59.1s16.3,59.1,36.3,59.1c20.1,0,36.3-26.5,36.3-59.1C2739.8,127.4,2738.1,117.3,2735,108.7z"/>
	</g>
	<g>
		<path class="st0" d="M302.4,505.2l-5-0.7c0.2-1.8,0.4-3.6,0.6-5.3c0.6-6.5,1.3-13.2,6-18.9c7.5-9.6,10-18.5,6.8-24.4
			c-2.1-3.9-6.7-6.1-12-5.7c-10.1,0.9-16.6,9.8-19.4,17.8l-4.7-1.6c2.2-6.4,5.6-11.7,10.1-15.4c4-3.4,8.7-5.4,13.6-5.8
			c7.3-0.6,13.8,2.5,16.9,8.3c2.5,4.5,4.8,14.5-7.3,29.8l0,0c-3.7,4.6-4.3,10-4.9,16.3C302.8,501.5,302.7,503.3,302.4,505.2z"/>
		<path class="st2" d="M252.5,479.5l-16.7-9.7l14.3-12.9c5.8-5.2,14.6-4.7,19.8,1c2.1,2.3,7.5,7.5,7.5,7.5s-5.1,9.2-8.6,12.3
			C264.4,481.8,257.8,482.5,252.5,479.5"/>
		<path class="st2" d="M283.9,493.2c-5.8-1.9-9.7-7.3-9.7-13.3c0-4.7,3.4-14.6,3.4-14.6s7.5,0.6,10.6,0.6c7.7,0,14,6.3,14,14l0,19.3
			L283.9,493.2"/>
	</g>
	<rect x="898.5" y="424.2" class="st0" width="5" height="77.9"/>
	<g>
		<path class="st5" d="M700.3,382.4c-1.4,0-2.5-1.1-2.5-2.5l-0.1-19.1c0-1.4,1.1-2.5,2.5-2.5c0,0,0,0,0,0c1.4,0,2.5,1.1,2.5,2.5
			l0.1,19.1C702.9,381.2,701.7,382.3,700.3,382.4C700.4,382.4,700.4,382.4,700.3,382.4z"/>
		<path class="st5" d="M718.6,387.3c-0.7,0-1.5-0.3-1.9-0.9c-0.9-1.1-0.7-2.7,0.4-3.5l14.9-12c1.1-0.9,2.7-0.7,3.5,0.4
			c0.9,1.1,0.7,2.7-0.4,3.5l-14.9,12C719.7,387.1,719.1,387.3,718.6,387.3z"/>
		<path class="st5" d="M680,387.3c-0.7,0-1.5-0.3-1.9-0.9l-12-14.9c-0.9-1.1-0.7-2.7,0.4-3.5c1.1-0.9,2.7-0.7,3.5,0.4l12,14.9
			c0.9,1.1,0.7,2.7-0.4,3.5C681.1,387.1,680.6,387.3,680,387.3z"/>
	</g>
	<path class="st3" d="M2513.3,203.2h-20.1c-22.1,0-40-17.9-40-40V143c0-22.1,17.9-40,40-40h20.1c22.1,0,40,17.9,40,40v20.1
		C2553.3,185.3,2535.4,203.2,2513.3,203.2z"/>
	<g>
		<path class="st4" d="M2520.7,136.8c0,0.1-12.1,0.1-12.1,0.1c7.1,2.7,4.7,21.8-0.7,27.5c-1.4,1.5-3.6,1.9-5.4,1
			c-4.6-2.1-5.6-10-5.2-19.6c0.5-11.3,5.5-20.2,12.4-19.7c3.4,0.4,5.9,2.9,9.1,6.1c-3.7-7.3-9.3-12-15.6-12
			c-11.1,0-20.2,14.7-20.2,32.8s9,32.8,20.2,32.8c11.1,0,20.2-14.7,20.2-32.8C2523.4,147.2,2522.4,141.6,2520.7,136.8z"/>
	</g>
	<g>
		<path class="st5" d="M2302.6,95.3c-1.4,0-2.5-1.1-2.5-2.5l-0.1-19.1c0-1.4,1.1-2.5,2.5-2.5c0,0,0,0,0,0c1.4,0,2.5,1.1,2.5,2.5
			l0.1,19.1C2305.1,94.1,2304,95.3,2302.6,95.3C2302.6,95.3,2302.6,95.3,2302.6,95.3z"/>
		<path class="st5" d="M2320.8,100.2c-0.7,0-1.5-0.3-1.9-0.9c-0.9-1.1-0.7-2.7,0.4-3.5l14.9-12c1.1-0.9,2.7-0.7,3.5,0.4
			s0.7,2.7-0.4,3.5l-14.9,12C2321.9,100,2321.4,100.2,2320.8,100.2z"/>
		<path class="st5" d="M2282.3,100.2c-0.7,0-1.5-0.3-1.9-0.9l-12-14.9c-0.9-1.1-0.7-2.7,0.4-3.5c1.1-0.9,2.7-0.7,3.5,0.4l12,14.9
			c0.9,1.1,0.7,2.7-0.4,3.5C2283.4,100,2282.8,100.2,2282.3,100.2z"/>
	</g>
	<g>
		<path class="st2" d="M671.1,405.7c6.8-2.7,14.6-0.7,19.2,5c3.6,4.3,8,16.1,8,16.1s-7.4,5.2-10.3,7.6c-7.2,5.9-17.8,4.9-23.7-2.3
			l-14.7-17.9L671.1,405.7"/>
		<path class="st2" d="M730.3,405.7l21.6,8.5l-14.7,17.9c-5.9,7.2-16.5,8.2-23.7,2.3c-2.9-2.4-10.3-7.6-10.3-7.6s4.4-11.8,8-16.1
			C715.7,405,723.5,403,730.3,405.7"/>
	</g>
	<g>
		<path class="st2" d="M871.4,405.7c6.8-2.7,14.6-0.7,19.2,5c3.6,4.3,8,16.1,8,16.1s-7.4,5.2-10.3,7.6c-7.2,5.9-17.8,4.9-23.7-2.3
			l-14.7-17.9L871.4,405.7"/>
		<path class="st2" d="M930.6,405.7l21.6,8.5l-14.7,17.9c-5.9,7.2-16.5,8.2-23.7,2.3c-2.9-2.4-10.3-7.6-10.3-7.6s4.4-11.8,8-16.1
			C916,405,923.7,403,930.6,405.7"/>
	</g>
	<g>
		<path class="st2" d="M1071.7,405.7c6.8-2.7,14.6-0.7,19.2,5c3.6,4.3,8,16.1,8,16.1s-7.4,5.2-10.3,7.6c-7.2,5.9-17.8,4.9-23.7-2.3
			l-14.7-17.9L1071.7,405.7"/>
		<path class="st2" d="M1130.8,405.7l21.6,8.5l-14.7,17.9c-5.9,7.2-16.5,8.2-23.7,2.3c-2.9-2.4-10.3-7.6-10.3-7.6s4.4-11.8,8-16.1
			C1116.3,405,1124,403,1130.8,405.7"/>
	</g>
	<g>
		<path class="st2" d="M1272,405.7c6.8-2.7,14.6-0.7,19.2,5c3.6,4.3,8,16.1,8,16.1s-7.4,5.2-10.3,7.6c-7.2,5.9-17.8,4.9-23.7-2.3
			l-14.7-17.9L1272,405.7"/>
		<path class="st2" d="M1331.1,405.7l21.6,8.5l-14.7,17.9c-5.9,7.2-16.5,8.2-23.7,2.3c-2.9-2.4-10.3-7.6-10.3-7.6s4.4-11.8,8-16.1
			C1316.6,405,1324.3,403,1331.1,405.7"/>
	</g>
	<path class="st2" d="M1272,354.7c6.8-2.7,14.6-0.7,19.2,5c3.6,4.3,8,16.1,8,16.1s-7.4,5.2-10.3,7.6c-7.2,5.9-17.8,4.9-23.7-2.3
		l-14.7-17.9L1272,354.7"/>
	<path class="st2" d="M1331.1,354.7l21.6,8.5l-14.7,17.9c-5.9,7.2-16.5,8.2-23.7,2.3c-2.9-2.4-10.3-7.6-10.3-7.6s4.4-11.8,8-16.1
		C1316.6,354,1324.3,352,1331.1,354.7"/>
	<path class="st2" d="M1130.8,354.7l21.6,8.5l-14.7,17.9c-5.9,7.2-16.5,8.2-23.7,2.3c-2.9-2.4-10.3-7.6-10.3-7.6s4.4-11.8,8-16.1
		C1116.3,354,1124,352,1130.8,354.7"/>
	<g>
		<g>
			<path class="st2" d="M1472.3,405.7c6.8-2.7,14.6-0.7,19.2,5c3.6,4.3,8,16.1,8,16.1s-7.4,5.2-10.3,7.6c-7.2,5.9-17.8,4.9-23.7-2.3
				l-14.7-17.9L1472.3,405.7"/>
			<path class="st2" d="M1531.4,405.7l21.6,8.5l-14.7,17.9c-5.9,7.2-16.5,8.2-23.7,2.3c-2.9-2.4-10.3-7.6-10.3-7.6s4.4-11.8,8-16.1
				C1516.8,405,1524.6,403,1531.4,405.7"/>
		</g>
		<g>
			<path class="st2" d="M1472.3,354.7c6.8-2.7,14.6-0.7,19.2,5c3.6,4.3,8,16.1,8,16.1s-7.4,5.2-10.3,7.6c-7.2,5.9-17.8,4.9-23.7-2.3
				l-14.7-17.9L1472.3,354.7"/>
			<path class="st2" d="M1531.4,354.7l21.6,8.5l-14.7,17.9c-5.9,7.2-16.5,8.2-23.7,2.3c-2.9-2.4-10.3-7.6-10.3-7.6s4.4-11.8,8-16.1
				C1516.8,354,1524.6,352,1531.4,354.7"/>
		</g>
	</g>
	<g>
		<path class="st2" d="M1672.5,302.7c6.8-2.7,14.6-0.7,19.2,5c3.6,4.3,8,16.1,8,16.1s-7.4,5.2-10.3,7.6c-7.2,5.9-17.8,4.9-23.7-2.3
			l-14.7-17.9L1672.5,302.7"/>
		<path class="st2" d="M1731.7,302.7l21.6,8.5l-14.7,17.9c-5.9,7.2-16.5,8.2-23.7,2.3c-2.9-2.4-10.3-7.6-10.3-7.6s4.4-11.8,8-16.1
			C1717.1,302,1724.9,300,1731.7,302.7"/>
	</g>
	<g>
		<path class="st2" d="M1672.5,405.7c6.8-2.7,14.6-0.7,19.2,5c3.6,4.3,8,16.1,8,16.1s-7.4,5.2-10.3,7.6c-7.2,5.9-17.8,4.9-23.7-2.3
			l-14.7-17.9L1672.5,405.7"/>
		<path class="st2" d="M1731.7,405.7l21.6,8.5l-14.7,17.9c-5.9,7.2-16.5,8.2-23.7,2.3c-2.9-2.4-10.3-7.6-10.3-7.6s4.4-11.8,8-16.1
			C1717.1,405,1724.9,403,1731.7,405.7"/>
	</g>
	<g>
		<path class="st2" d="M1672.5,354.7c6.8-2.7,14.6-0.7,19.2,5c3.6,4.3,8,16.1,8,16.1s-7.4,5.2-10.3,7.6c-7.2,5.9-17.8,4.9-23.7-2.3
			l-14.7-17.9L1672.5,354.7"/>
		<path class="st2" d="M1731.7,354.7l21.6,8.5l-14.7,17.9c-5.9,7.2-16.5,8.2-23.7,2.3c-2.9-2.4-10.3-7.6-10.3-7.6s4.4-11.8,8-16.1
			C1717.1,354,1724.9,352,1731.7,354.7"/>
	</g>
	<path class="st2" d="M1472.3,302.7c6.8-2.7,14.6-0.7,19.2,5c3.6,4.3,8,16.1,8,16.1s-7.4,5.2-10.3,7.6c-7.2,5.9-17.8,4.9-23.7-2.3
		l-14.7-17.9L1472.3,302.7"/>
	<g>
		<g>
			<path class="st2" d="M1872.8,302.7c6.8-2.7,14.6-0.7,19.2,5c3.6,4.3,8,16.1,8,16.1s-7.4,5.2-10.3,7.6c-7.2,5.9-17.8,4.9-23.7-2.3
				l-14.7-17.9L1872.8,302.7"/>
			<path class="st2" d="M1932,302.7l21.6,8.5l-14.7,17.9c-5.9,7.2-16.5,8.2-23.7,2.3c-2.9-2.4-10.3-7.6-10.3-7.6s4.4-11.8,8-16.1
				C1917.4,302,1925.2,300,1932,302.7"/>
		</g>
		<g>
			<path class="st2" d="M1872.8,405.7c6.8-2.7,14.6-0.7,19.2,5c3.6,4.3,8,16.1,8,16.1s-7.4,5.2-10.3,7.6c-7.2,5.9-17.8,4.9-23.7-2.3
				l-14.7-17.9L1872.8,405.7"/>
			<path class="st2" d="M1932,405.7l21.6,8.5l-14.7,17.9c-5.9,7.2-16.5,8.2-23.7,2.3c-2.9-2.4-10.3-7.6-10.3-7.6s4.4-11.8,8-16.1
				C1917.4,405,1925.2,403,1932,405.7"/>
		</g>
		<g>
			<path class="st2" d="M1872.8,354.7c6.8-2.7,14.6-0.7,19.2,5c3.6,4.3,8,16.1,8,16.1s-7.4,5.2-10.3,7.6c-7.2,5.9-17.8,4.9-23.7-2.3
				l-14.7-17.9L1872.8,354.7"/>
			<path class="st2" d="M1932,354.7l21.6,8.5l-14.7,17.9c-5.9,7.2-16.5,8.2-23.7,2.3c-2.9-2.4-10.3-7.6-10.3-7.6s4.4-11.8,8-16.1
				C1917.4,354,1925.2,352,1932,354.7"/>
		</g>
	</g>
	<g>
		<g>
			<g>
				<path class="st2" d="M2073.1,302.7c6.8-2.7,14.6-0.7,19.2,5c3.6,4.3,8,16.1,8,16.1s-7.4,5.2-10.3,7.6
					c-7.2,5.9-17.8,4.9-23.7-2.3l-14.7-17.9L2073.1,302.7"/>
				<path class="st2" d="M2132.2,302.7l21.6,8.5l-14.7,17.9c-5.9,7.2-16.5,8.2-23.7,2.3c-2.9-2.4-10.3-7.6-10.3-7.6s4.4-11.8,8-16.1
					C2117.7,302,2125.4,300,2132.2,302.7"/>
			</g>
			<g>
				<path class="st2" d="M2073.1,405.7c6.8-2.7,14.6-0.7,19.2,5c3.6,4.3,8,16.1,8,16.1s-7.4,5.2-10.3,7.6
					c-7.2,5.9-17.8,4.9-23.7-2.3l-14.7-17.9L2073.1,405.7"/>
				<path class="st2" d="M2132.2,405.7l21.6,8.5l-14.7,17.9c-5.9,7.2-16.5,8.2-23.7,2.3c-2.9-2.4-10.3-7.6-10.3-7.6s4.4-11.8,8-16.1
					C2117.7,405,2125.4,403,2132.2,405.7"/>
			</g>
			<g>
				<path class="st2" d="M2073.1,354.7c6.8-2.7,14.6-0.7,19.2,5c3.6,4.3,8,16.1,8,16.1s-7.4,5.2-10.3,7.6
					c-7.2,5.9-17.8,4.9-23.7-2.3l-14.7-17.9L2073.1,354.7"/>
				<path class="st2" d="M2132.2,354.7l21.6,8.5l-14.7,17.9c-5.9,7.2-16.5,8.2-23.7,2.3c-2.9-2.4-10.3-7.6-10.3-7.6s4.4-11.8,8-16.1
					C2117.7,354,2125.4,352,2132.2,354.7"/>
			</g>
		</g>
		<g>
			<path class="st2" d="M2073.1,251.2c6.8-2.7,14.6-0.7,19.2,5c3.6,4.3,8,16.1,8,16.1s-7.4,5.2-10.3,7.6c-7.2,5.9-17.8,4.9-23.7-2.3
				l-14.7-17.9L2073.1,251.2"/>
			<path class="st2" d="M2132.2,251.2l21.6,8.5l-14.7,17.9c-5.9,7.2-16.5,8.2-23.7,2.3c-2.9-2.4-10.3-7.6-10.3-7.6s4.4-11.8,8-16.1
				C2117.7,250.5,2125.4,248.5,2132.2,251.2"/>
		</g>
	</g>
	<path class="st2" d="M1932,251.2l21.6,8.5l-14.7,17.9c-5.9,7.2-16.5,8.2-23.7,2.3c-2.9-2.4-10.3-7.6-10.3-7.6s4.4-11.8,8-16.1
		C1917.4,250.5,1925.2,248.5,1932,251.2"/>
	<g>
		<g>
			<g>
				<path class="st2" d="M2473.7,302.7c6.8-2.7,14.6-0.7,19.2,5c3.6,4.3,8,16.1,8,16.1s-7.4,5.2-10.3,7.6
					c-7.2,5.9-17.8,4.9-23.7-2.3l-14.7-17.9L2473.7,302.7"/>
				<path class="st2" d="M2532.8,302.7l21.6,8.5l-14.7,17.9c-5.9,7.2-16.5,8.2-23.7,2.3c-2.9-2.4-10.3-7.6-10.3-7.6s4.4-11.8,8-16.1
					C2518.2,302,2526,300,2532.8,302.7"/>
			</g>
			<g>
				<path class="st2" d="M2473.7,405.7c6.8-2.7,14.6-0.7,19.2,5c3.6,4.3,8,16.1,8,16.1s-7.4,5.2-10.3,7.6
					c-7.2,5.9-17.8,4.9-23.7-2.3l-14.7-17.9L2473.7,405.7"/>
				<path class="st2" d="M2532.8,405.7l21.6,8.5l-14.7,17.9c-5.9,7.2-16.5,8.2-23.7,2.3c-2.9-2.4-10.3-7.6-10.3-7.6s4.4-11.8,8-16.1
					C2518.2,405,2526,403,2532.8,405.7"/>
			</g>
			<g>
				<path class="st2" d="M2473.7,354.7c6.8-2.7,14.6-0.7,19.2,5c3.6,4.3,8,16.1,8,16.1s-7.4,5.2-10.3,7.6
					c-7.2,5.9-17.8,4.9-23.7-2.3l-14.7-17.9L2473.7,354.7"/>
				<path class="st2" d="M2532.8,354.7l21.6,8.5l-14.7,17.9c-5.9,7.2-16.5,8.2-23.7,2.3c-2.9-2.4-10.3-7.6-10.3-7.6s4.4-11.8,8-16.1
					C2518.2,354,2526,352,2532.8,354.7"/>
			</g>
		</g>
		<g>
			<path class="st2" d="M2473.7,251.2c6.8-2.7,14.6-0.7,19.2,5c3.6,4.3,8,16.1,8,16.1s-7.4,5.2-10.3,7.6c-7.2,5.9-17.8,4.9-23.7-2.3
				l-14.7-17.9L2473.7,251.2"/>
			<path class="st2" d="M2532.8,251.2l21.6,8.5l-14.7,17.9c-5.9,7.2-16.5,8.2-23.7,2.3c-2.9-2.4-10.3-7.6-10.3-7.6s4.4-11.8,8-16.1
				C2518.2,250.5,2526,248.5,2532.8,251.2"/>
		</g>
	</g>
	<g>
		<g>
			<g>
				<path class="st2" d="M2273.4,302.7c6.8-2.7,14.6-0.7,19.2,5c3.6,4.3,8,16.1,8,16.1s-7.4,5.2-10.3,7.6
					c-7.2,5.9-17.8,4.9-23.7-2.3l-14.7-17.9L2273.4,302.7"/>
				<path class="st2" d="M2332.5,302.7l21.6,8.5l-14.7,17.9c-5.9,7.2-16.5,8.2-23.7,2.3c-2.9-2.4-10.3-7.6-10.3-7.6s4.4-11.8,8-16.1
					C2318,302,2325.7,300,2332.5,302.7"/>
			</g>
			<g>
				<path class="st2" d="M2273.4,405.7c6.8-2.7,14.6-0.7,19.2,5c3.6,4.3,8,16.1,8,16.1s-7.4,5.2-10.3,7.6
					c-7.2,5.9-17.8,4.9-23.7-2.3l-14.7-17.9L2273.4,405.7"/>
				<path class="st2" d="M2332.5,405.7l21.6,8.5l-14.7,17.9c-5.9,7.2-16.5,8.2-23.7,2.3c-2.9-2.4-10.3-7.6-10.3-7.6s4.4-11.8,8-16.1
					C2318,405,2325.7,403,2332.5,405.7"/>
			</g>
			<g>
				<path class="st2" d="M2273.4,354.7c6.8-2.7,14.6-0.7,19.2,5c3.6,4.3,8,16.1,8,16.1s-7.4,5.2-10.3,7.6
					c-7.2,5.9-17.8,4.9-23.7-2.3l-14.7-17.9L2273.4,354.7"/>
				<path class="st2" d="M2332.5,354.7l21.6,8.5l-14.7,17.9c-5.9,7.2-16.5,8.2-23.7,2.3c-2.9-2.4-10.3-7.6-10.3-7.6s4.4-11.8,8-16.1
					C2318,354,2325.7,352,2332.5,354.7"/>
			</g>
		</g>
		<g>
			<path class="st2" d="M2273.4,251.2c6.8-2.7,14.6-0.7,19.2,5c3.6,4.3,8,16.1,8,16.1s-7.4,5.2-10.3,7.6c-7.2,5.9-17.8,4.9-23.7-2.3
				l-14.7-17.9L2273.4,251.2"/>
			<path class="st2" d="M2332.5,251.2l21.6,8.5l-14.7,17.9c-5.9,7.2-16.5,8.2-23.7,2.3c-2.9-2.4-10.3-7.6-10.3-7.6s4.4-11.8,8-16.1
				C2318,250.5,2325.7,248.5,2332.5,251.2"/>
		</g>
	</g>
	<g>
		<g>
			<g>
				<path class="st2" d="M2673.9,302.7c6.8-2.7,14.6-0.7,19.2,5c3.6,4.3,8,16.1,8,16.1s-7.4,5.2-10.3,7.6
					c-7.2,5.9-17.8,4.9-23.7-2.3l-14.7-17.9L2673.9,302.7"/>
				<path class="st2" d="M2733.1,302.7l21.6,8.5l-14.7,17.9c-5.9,7.2-16.5,8.2-23.7,2.3c-2.9-2.4-10.3-7.6-10.3-7.6s4.4-11.8,8-16.1
					C2718.5,302,2726.3,300,2733.1,302.7"/>
			</g>
			<g>
				<path class="st2" d="M2673.9,405.7c6.8-2.7,14.6-0.7,19.2,5c3.6,4.3,8,16.1,8,16.1s-7.4,5.2-10.3,7.6
					c-7.2,5.9-17.8,4.9-23.7-2.3l-14.7-17.9L2673.9,405.7"/>
				<path class="st2" d="M2733.1,405.7l21.6,8.5l-14.7,17.9c-5.9,7.2-16.5,8.2-23.7,2.3c-2.9-2.4-10.3-7.6-10.3-7.6s4.4-11.8,8-16.1
					C2718.5,405,2726.3,403,2733.1,405.7"/>
			</g>
			<g>
				<path class="st2" d="M2673.9,354.7c6.8-2.7,14.6-0.7,19.2,5c3.6,4.3,8,16.1,8,16.1s-7.4,5.2-10.3,7.6
					c-7.2,5.9-17.8,4.9-23.7-2.3l-14.7-17.9L2673.9,354.7"/>
				<path class="st2" d="M2733.1,354.7l21.6,8.5l-14.7,17.9c-5.9,7.2-16.5,8.2-23.7,2.3c-2.9-2.4-10.3-7.6-10.3-7.6s4.4-11.8,8-16.1
					C2718.5,354,2726.3,352,2733.1,354.7"/>
			</g>
		</g>
		<g>
			<path class="st2" d="M2673.9,251.2c6.8-2.7,14.6-0.7,19.2,5c3.6,4.3,8,16.1,8,16.1s-7.4,5.2-10.3,7.6c-7.2,5.9-17.8,4.9-23.7-2.3
				l-14.7-17.9L2673.9,251.2"/>
			<path class="st2" d="M2733.1,251.2l21.6,8.5l-14.7,17.9c-5.9,7.2-16.5,8.2-23.7,2.3c-2.9-2.4-10.3-7.6-10.3-7.6s4.4-11.8,8-16.1
				C2718.5,250.5,2726.3,248.5,2733.1,251.2"/>
		</g>
	</g>
</g>
</svg>
